<?xml version="1.0" encoding="utf-8"?>
<!-- Generator: Adobe Illustrator 22.0.1, SVG Export Plug-In . SVG Version: 6.00 Build 0)  -->
<svg version="1.1" id="Camada_1" xmlns="http://www.w3.org/2000/svg" xmlns:xlink="http://www.w3.org/1999/xlink" x="0px" y="0px"
	 viewBox="0 0 463 363.5" style="enable-background:new 0 0 463 363.5;" xml:space="preserve">
<style type="text/css">
	.st0{fill:#FFFFFF;}
</style>
<g>
	<path class="st0" d="M7.5,87.3c4.1,0,7.5-3.4,7.5-7.5v-56c0-4.7,3.8-8.5,8.5-8.5h56c4.1,0,7.5-3.4,7.5-7.5s-3.4-7.5-7.5-7.5h-56
		C10.5,0.3,0,10.8,0,23.8v56C0,83.9,3.4,87.3,7.5,87.3z"/>
	<path class="st0" d="M439.5,0.3h-56c-4.1,0-7.5,3.4-7.5,7.5s3.4,7.5,7.5,7.5h56c4.7,0,8.5,3.8,8.5,8.5v56c0,4.1,3.4,7.5,7.5,7.5
		s7.5-3.4,7.5-7.5v-56C463,10.8,452.5,0.3,439.5,0.3z"/>
	<path class="st0" d="M455.5,276.3c-4.1,0-7.5,3.4-7.5,7.5v56c0,4.7-3.8,8.5-8.5,8.5h-56c-4.1,0-7.5,3.4-7.5,7.5s3.4,7.5,7.5,7.5h56
		c13,0,23.5-10.5,23.5-23.5v-56C463,279.7,459.6,276.3,455.5,276.3z"/>
	<path class="st0" d="M79.5,348.3h-56c-4.7,0-8.5-3.8-8.5-8.5v-56c0-4.1-3.4-7.5-7.5-7.5S0,279.7,0,283.8v56
		c0,13,10.5,23.5,23.5,23.5h56c4.1,0,7.5-3.4,7.5-7.5S83.6,348.3,79.5,348.3z"/>
	<path class="st0" d="M455.5,164.3H7.5c-4.1,0-7.5,3.4-7.5,7.5s3.4,7.5,7.5,7.5h448c4.1,0,7.5-3.4,7.5-7.5S459.6,164.3,455.5,164.3z
		"/>
	<path class="st0" d="M231.5,147.3c4.1,0,7.5-3.4,7.5-7.5v-72c0-4.1-3.4-7.5-7.5-7.5s-7.5,3.4-7.5,7.5v72
		C224,143.9,227.4,147.3,231.5,147.3z"/>
	<path class="st0" d="M263.5,147.3c4.1,0,7.5-3.4,7.5-7.5v-72c0-4.1-3.4-7.5-7.5-7.5s-7.5,3.4-7.5,7.5v72
		C256,143.9,259.4,147.3,263.5,147.3z"/>
	<path class="st0" d="M199.5,147.3c4.1,0,7.5-3.4,7.5-7.5v-72c0-4.1-3.4-7.5-7.5-7.5s-7.5,3.4-7.5,7.5v72
		C192,143.9,195.4,147.3,199.5,147.3z"/>
	<path class="st0" d="M167.5,147.3c4.1,0,7.5-3.4,7.5-7.5v-72c0-4.1-3.4-7.5-7.5-7.5s-7.5,3.4-7.5,7.5v72
		C160,143.9,163.4,147.3,167.5,147.3z"/>
	<path class="st0" d="M295.5,147.3c4.1,0,7.5-3.4,7.5-7.5v-72c0-4.1-3.4-7.5-7.5-7.5s-7.5,3.4-7.5,7.5v72
		C288,143.9,291.4,147.3,295.5,147.3z"/>
	<path class="st0" d="M327.5,147.3c4.1,0,7.5-3.4,7.5-7.5v-72c0-4.1-3.4-7.5-7.5-7.5s-7.5,3.4-7.5,7.5v72
		C320,143.9,323.4,147.3,327.5,147.3z"/>
	<path class="st0" d="M359.5,147.3c4.1,0,7.5-3.4,7.5-7.5v-72c0-4.1-3.4-7.5-7.5-7.5s-7.5,3.4-7.5,7.5v72
		C352,143.9,355.4,147.3,359.5,147.3z"/>
	<path class="st0" d="M103.5,147.3c4.1,0,7.5-3.4,7.5-7.5v-72c0-4.1-3.4-7.5-7.5-7.5S96,63.7,96,67.8v72
		C96,143.9,99.4,147.3,103.5,147.3z"/>
	<path class="st0" d="M79,275.8v-72c0-4.1-3.4-7.5-7.5-7.5s-7.5,3.4-7.5,7.5v72c0,4.1,3.4,7.5,7.5,7.5S79,279.9,79,275.8z"/>
	<path class="st0" d="M64,67.8v72c0,4.1,3.4,7.5,7.5,7.5s7.5-3.4,7.5-7.5v-72c0-4.1-3.4-7.5-7.5-7.5S64,63.7,64,67.8z"/>
	<path class="st0" d="M399,275.8v-72c0-4.1-3.4-7.5-7.5-7.5s-7.5,3.4-7.5,7.5v72c0,4.1,3.4,7.5,7.5,7.5S399,279.9,399,275.8z"/>
	<path class="st0" d="M399,139.8v-72c0-4.1-3.4-7.5-7.5-7.5s-7.5,3.4-7.5,7.5v72c0,4.1,3.4,7.5,7.5,7.5S399,143.9,399,139.8z"/>
	<path class="st0" d="M231.5,196.3c-4.1,0-7.5,3.4-7.5,7.5v24c0,4.1,3.4,7.5,7.5,7.5s7.5-3.4,7.5-7.5v-24
		C239,199.7,235.6,196.3,231.5,196.3z"/>
	<path class="st0" d="M263.5,196.3c-4.1,0-7.5,3.4-7.5,7.5v24c0,4.1,3.4,7.5,7.5,7.5s7.5-3.4,7.5-7.5v-24
		C271,199.7,267.6,196.3,263.5,196.3z"/>
	<path class="st0" d="M199.5,196.3c-4.1,0-7.5,3.4-7.5,7.5v24c0,4.1,3.4,7.5,7.5,7.5s7.5-3.4,7.5-7.5v-24
		C207,199.7,203.6,196.3,199.5,196.3z"/>
	<path class="st0" d="M167.5,196.3c-4.1,0-7.5,3.4-7.5,7.5v24c0,4.1,3.4,7.5,7.5,7.5s7.5-3.4,7.5-7.5v-24
		C175,199.7,171.6,196.3,167.5,196.3z"/>
	<path class="st0" d="M295.5,196.3c-4.1,0-7.5,3.4-7.5,7.5v24c0,4.1,3.4,7.5,7.5,7.5s7.5-3.4,7.5-7.5v-24
		C303,199.7,299.6,196.3,295.5,196.3z"/>
	<path class="st0" d="M327.5,196.3c-4.1,0-7.5,3.4-7.5,7.5v24c0,4.1,3.4,7.5,7.5,7.5s7.5-3.4,7.5-7.5v-24
		C335,199.7,331.6,196.3,327.5,196.3z"/>
	<path class="st0" d="M359.5,196.3c-4.1,0-7.5,3.4-7.5,7.5v24c0,4.1,3.4,7.5,7.5,7.5s7.5-3.4,7.5-7.5v-24
		C367,199.7,363.6,196.3,359.5,196.3z"/>
	<path class="st0" d="M103.5,196.3c-4.1,0-7.5,3.4-7.5,7.5v24c0,4.1,3.4,7.5,7.5,7.5s7.5-3.4,7.5-7.5v-24
		C111,199.7,107.6,196.3,103.5,196.3z"/>
	<path class="st0" d="M135.5,196.3c-4.1,0-7.5,3.4-7.5,7.5v24c0,4.1,3.4,7.5,7.5,7.5s7.5-3.4,7.5-7.5v-24
		C143,199.7,139.6,196.3,135.5,196.3z"/>
	<path class="st0" d="M135.5,147.3c4.1,0,7.5-3.4,7.5-7.5v-72c0-4.1-3.4-7.5-7.5-7.5s-7.5,3.4-7.5,7.5v72
		C128,143.9,131.4,147.3,135.5,147.3z"/>
	<rect x="64" y="108.6" class="st0" width="15" height="103.3"/>
	<rect x="384" y="125.4" class="st0" width="15" height="92"/>
	<path class="st0" d="M335.5,252.3h-72c-4.1,0-7.5,3.4-7.5,7.5s3.4,7.5,7.5,7.5h72c4.1,0,7.5-3.4,7.5-7.5S339.6,252.3,335.5,252.3z"
		/>
	<path class="st0" d="M127.5,267.3h72c4.1,0,7.5-3.4,7.5-7.5s-3.4-7.5-7.5-7.5h-72c-4.1,0-7.5,3.4-7.5,7.5S123.4,267.3,127.5,267.3z
		"/>
	<rect x="168.2" y="252.3" class="st0" width="103.3" height="15"/>
</g>
</svg>
