<?xml version="1.0" encoding="utf-8"?>
<!-- Generator: Adobe Illustrator 22.0.1, SVG Export Plug-In . SVG Version: 6.00 Build 0)  -->
<svg version="1.1" id="Camada_1" xmlns="http://www.w3.org/2000/svg" xmlns:xlink="http://www.w3.org/1999/xlink" x="0px" y="0px"
	 viewBox="0 0 64 64" style="enable-background:new 0 0 64 64;" xml:space="preserve">
<style type="text/css">
	.st0{fill:#FFFFFF;}
</style>
<g>
	<path class="st0" d="M25.6,19.2h-1.6c-0.1,0-0.3,0-0.4-0.1s-0.3-0.1-0.4-0.2c-0.1-0.1-0.2-0.2-0.2-0.4c-0.1-0.1-0.1-0.3-0.1-0.4
		c0-0.1,0-0.3,0.1-0.4c0.1-0.1,0.1-0.2,0.2-0.3c0.2-0.2,0.5-0.3,0.8-0.3h3.1c0.3,0,0.5-0.1,0.7-0.3c0.2-0.2,0.3-0.4,0.3-0.7
		c0-0.3-0.1-0.5-0.3-0.7c-0.2-0.2-0.4-0.3-0.7-0.3h-1.3v-1.4c0-0.3-0.1-0.5-0.3-0.7c-0.2-0.2-0.4-0.3-0.7-0.3
		c-0.3,0-0.5,0.1-0.7,0.3c-0.2,0.2-0.3,0.4-0.3,0.7v1.4c-0.7,0-1.5,0.3-2,0.9c-0.3,0.3-0.5,0.6-0.7,1c-0.2,0.4-0.2,0.8-0.2,1.2
		c0,0.4,0.1,0.8,0.2,1.2c0.2,0.4,0.4,0.7,0.7,1c0.3,0.3,0.6,0.5,1,0.7c0.4,0.2,0.8,0.2,1.2,0.2h1.7c0.1,0,0.3,0,0.4,0.1
		s0.3,0.1,0.4,0.2c0.1,0.1,0.2,0.2,0.3,0.4s0.1,0.3,0.1,0.4c0,0.1,0,0.3-0.1,0.4c-0.1,0.1-0.1,0.2-0.2,0.3c-0.2,0.2-0.5,0.3-0.8,0.3
		h-3.2c-0.3,0-0.5,0.1-0.7,0.3c-0.2,0.2-0.3,0.4-0.3,0.7c0,0.3,0.1,0.5,0.3,0.7c0.2,0.2,0.4,0.3,0.7,0.3h1.3v1.4
		c0,0.3,0.1,0.5,0.3,0.7c0.2,0.2,0.4,0.3,0.7,0.3c0.3,0,0.5-0.1,0.7-0.3c0.2-0.2,0.3-0.4,0.3-0.7v-1.4c0.7,0,1.5-0.4,2-0.9
		c0.3-0.3,0.6-0.6,0.7-1c0.2-0.4,0.3-0.8,0.3-1.2c0-0.4-0.1-0.8-0.3-1.2c-0.2-0.4-0.4-0.7-0.7-1c-0.3-0.3-0.6-0.5-1-0.7
		S26,19.2,25.6,19.2L25.6,19.2z"/>
	<path class="st0" d="M39.8,8.2l-1.7-2.4l-1.8,2.7c-0.1,0.1-0.2,0.2-0.4,0.3c-0.1,0.1-0.3,0.1-0.5,0.1c-0.2,0-0.3,0-0.5-0.1
		c-0.1-0.1-0.3-0.2-0.4-0.3l-1.8-2.7l-1.8,2.7c-0.1,0.1-0.2,0.2-0.4,0.3c-0.1,0.1-0.3,0.1-0.5,0.1s-0.3,0-0.5-0.1
		c-0.1-0.1-0.3-0.2-0.4-0.3l-1.8-2.7l-1.9,2.7c-0.1,0.1-0.2,0.2-0.4,0.3c-0.1,0.1-0.3,0.1-0.5,0.1c-0.2,0-0.3,0-0.5-0.1
		c-0.1-0.1-0.3-0.2-0.4-0.3l-1.8-2.7l-1.8,2.7c-0.1,0.1-0.2,0.2-0.4,0.3c-0.1,0.1-0.3,0.1-0.5,0.1c-0.2,0-0.3,0-0.5-0.1
		c-0.1-0.1-0.3-0.2-0.4-0.3l-1.8-2.7l-1.9,2.7c-0.1,0.1-0.2,0.2-0.4,0.3c-0.1,0.1-0.3,0.1-0.5,0.1s-0.3,0-0.5-0.1
		c-0.1-0.1-0.3-0.2-0.4-0.3l-1.8-2.7L9.8,8.2v46.3c0,1.2,0.5,2.3,1.3,3.2c0.8,0.8,2,1.3,3.2,1.3h27.4c-1.2-1.2-1.8-2.8-1.8-4.5V8.2z
		"/>
	<path class="st0" d="M41.8,54.5c0,1.2,0.5,2.3,1.3,3.2s2,1.3,3.2,1.3c1.2,0,2.3-0.5,3.2-1.3c0.8-0.8,1.3-2,1.3-3.2V19.2
		c0-1.7,0.6-3.3,1.8-4.5H41.8V54.5z"/>
	<path class="st0" d="M61.8,32V19.2c-0.1-1.1-0.6-2.2-1.4-3c-0.8-0.8-1.9-1.2-3.1-1.2c-1.1,0-2.2,0.4-3.1,1.2
		c-0.8,0.8-1.3,1.9-1.4,3V32H61.8z"/>
	<path class="st0" d="M52.8,19.2v-6.5h-11V7.9c0-0.2-0.1-0.4-0.2-0.6l-2.7-3.8c-0.1-0.1-0.2-0.2-0.4-0.3C38.4,3.1,38.3,3,38.1,3
		c-0.2,0-0.3,0-0.5,0.1c-0.1,0.1-0.3,0.2-0.4,0.3l-1.8,2.7l-1.9-2.7c-0.1-0.1-0.2-0.3-0.4-0.3C33.1,3.1,32.9,3,32.8,3
		c-0.2,0-0.3,0-0.5,0.1c-0.1,0.1-0.3,0.2-0.4,0.3l-1.9,2.7l-1.8-2.7c-0.1-0.1-0.2-0.2-0.4-0.3C27.7,3,27.6,3,27.4,3
		c-0.2,0-0.3,0-0.5,0.1c-0.1,0.1-0.3,0.2-0.4,0.3l-1.8,2.7l-1.8-2.7c-0.1-0.1-0.2-0.2-0.4-0.3C22.4,3,22.3,3,22.1,3
		c-0.2,0-0.3,0-0.5,0.1c-0.1,0.1-0.3,0.2-0.4,0.3l-1.8,2.7l-1.8-2.7c-0.1-0.1-0.2-0.2-0.4-0.3C17.1,3,16.9,3,16.8,3s-0.3,0-0.5,0.1
		c-0.1,0.1-0.3,0.2-0.4,0.3l-1.9,2.7l-1.8-2.7c-0.1-0.1-0.2-0.2-0.4-0.3C11.7,3,11.6,3,11.4,3c-0.2,0-0.3,0-0.5,0.1
		c-0.1,0.1-0.3,0.2-0.4,0.3L7.9,7.3C7.8,7.4,7.8,7.6,7.7,7.8l0,46.7c0,1.7,0.7,3.4,1.9,4.6c1.2,1.2,2.9,1.9,4.6,1.9h32
		c1.7,0,3.4-0.7,4.6-1.9c1.2-1.2,1.9-2.9,1.9-4.6V36.8V34v-2V19.2z M14.2,59c-1.2,0-2.3-0.5-3.2-1.3c-0.8-0.8-1.3-2-1.3-3.2V8.2
		l1.6-2.4l1.8,2.7c0.1,0.1,0.2,0.2,0.4,0.3c0.1,0.1,0.3,0.1,0.5,0.1s0.3,0,0.5-0.1c0.1-0.1,0.3-0.2,0.4-0.3l1.9-2.7l1.8,2.7
		c0.1,0.1,0.2,0.2,0.4,0.3c0.1,0.1,0.3,0.1,0.5,0.1c0.2,0,0.3,0,0.5-0.1c0.1-0.1,0.3-0.2,0.4-0.3l1.8-2.7L24,8.4
		c0.1,0.1,0.2,0.2,0.4,0.3c0.1,0.1,0.3,0.1,0.5,0.1c0.2,0,0.3,0,0.5-0.1c0.1-0.1,0.3-0.2,0.4-0.3l1.9-2.7l1.8,2.7
		c0.1,0.1,0.2,0.2,0.4,0.3c0.1,0.1,0.3,0.1,0.5,0.1s0.3,0,0.5-0.1c0.1-0.1,0.3-0.2,0.4-0.3l1.8-2.7l1.8,2.7c0.1,0.1,0.2,0.2,0.4,0.3
		c0.1,0.1,0.3,0.1,0.5,0.1c0.2,0,0.3,0,0.5-0.1c0.1-0.1,0.3-0.2,0.4-0.3l1.8-2.7l1.7,2.4v46.3c0,1.7,0.7,3.3,1.8,4.5H14.2z
		 M50.8,19.2v35.3c0,1.2-0.5,2.3-1.3,3.2c-0.8,0.8-2,1.3-3.2,1.3c-1.2,0-2.3-0.5-3.2-1.3s-1.3-2-1.3-3.2V14.7h10.8
		C51.4,15.9,50.8,17.5,50.8,19.2z"/>
	<rect x="50.8" y="12.7" class="st0" width="2" height="16.9"/>
	<path class="st0" d="M36.7,21.2h-4c-0.6,0-1-0.4-1-1v0c0-0.6,0.4-1,1-1h4c0.6,0,1,0.4,1,1v0C37.7,20.7,37.3,21.2,36.7,21.2z"/>
	<path class="st0" d="M16.8,21.2h-4c-0.6,0-1-0.4-1-1v0c0-0.6,0.4-1,1-1h4c0.6,0,1,0.4,1,1v0C17.8,20.7,17.4,21.2,16.8,21.2z"/>
	<path class="st0" d="M36.7,35.7H16.6c-0.6,0-1-0.4-1-1v0c0-0.6,0.4-1,1-1h20.1c0.6,0,1,0.4,1,1v0C37.7,35.2,37.3,35.7,36.7,35.7z"
		/>
	<path class="st0" d="M36.7,40.4H16.6c-0.6,0-1-0.4-1-1v0c0-0.6,0.4-1,1-1h20.1c0.6,0,1,0.4,1,1v0C37.7,40,37.3,40.4,36.7,40.4z"/>
	<path class="st0" d="M36.7,45.2H16.6c-0.6,0-1-0.4-1-1v0c0-0.6,0.4-1,1-1h20.1c0.6,0,1,0.4,1,1v0C37.7,44.7,37.3,45.2,36.7,45.2z"
		/>
	<path class="st0" d="M12.8,35.7L12.8,35.7c-0.6,0-1-0.4-1-1v0c0-0.6,0.4-1,1-1h0c0.6,0,1,0.4,1,1v0C13.8,35.2,13.4,35.7,12.8,35.7z
		"/>
	<path class="st0" d="M12.8,40.4L12.8,40.4c-0.6,0-1-0.4-1-1v0c0-0.6,0.4-1,1-1h0c0.6,0,1,0.4,1,1v0C13.8,40,13.4,40.4,12.8,40.4z"
		/>
	<path class="st0" d="M12.8,45.2L12.8,45.2c-0.6,0-1-0.4-1-1v0c0-0.6,0.4-1,1-1h0c0.6,0,1,0.4,1,1v0C13.8,44.7,13.4,45.2,12.8,45.2z
		"/>
</g>
</svg>
