<?xml version="1.0" encoding="utf-8"?>
<!-- Generator: Adobe Illustrator 22.0.1, SVG Export Plug-In . SVG Version: 6.00 Build 0)  -->
<svg version="1.1" id="Camada_1" xmlns="http://www.w3.org/2000/svg" xmlns:xlink="http://www.w3.org/1999/xlink" x="0px" y="0px"
	 viewBox="0 0 319 512" style="enable-background:new 0 0 319 512;" xml:space="preserve">
<style type="text/css">
	.st0{fill:none;stroke:#FFFFFF;stroke-width:8;stroke-linecap:round;stroke-linejoin:round;}
</style>
<title>ionicons-v5-b</title>
<g>
	<path class="st0" d="M228.9,267.5v-11.6c0-38.3-31.2-69.4-69.6-69.4c-21.2,0-41.2,9.6-54.4,26.2 M89.9,244.5v11.6
		c0,38.4,31.1,69.5,69.6,69.5c21.1,0,41.1-9.6,54.4-26"/>
	<polyline class="st0" points="72.5,256 89.6,238.9 107.5,256 	"/>
	<polyline class="st0" points="246.5,256 229.4,273.1 211.5,256 	"/>
	<path class="st0" d="M279.5,468.5h-240c-5.5,0-10-4.5-10-10v-405c0-5.5,4.5-10,10-10h240c5.5,0,10,4.5,10,10v405
		C289.5,464,285,468.5,279.5,468.5z"/>
	<line class="st0" x1="29.5" y1="87.5" x2="289.5" y2="87.5"/>
	<line class="st0" x1="29.5" y1="424.5" x2="289.5" y2="424.5"/>
	<line class="st0" x1="137.5" y1="446.5" x2="181.5" y2="446.5"/>
</g>
</svg>
