<?xml version="1.0" encoding="utf-8"?>
<!-- Generator: Adobe Illustrator 22.0.1, SVG Export Plug-In . SVG Version: 6.00 Build 0)  -->
<svg version="1.1" id="Camada_1" xmlns="http://www.w3.org/2000/svg" xmlns:xlink="http://www.w3.org/1999/xlink" x="0px" y="0px"
	 viewBox="0 0 463 223.6" style="enable-background:new 0 0 463 223.6;" xml:space="preserve">
<style type="text/css">
	.st0{fill:#FFFFFF;}
</style>
<path class="st0" d="M462.4,217v-72c0-4.1-4.3-7.5-9.4-7.5c-5.1,0-9.4,3.4-9.4,7.5v72c0,4.1,4.2,7.5,9.4,7.5
	C458.2,224.5,462.4,221.1,462.4,217z"/>
<path class="st0" d="M462.4,81V9c0-4.1-4.3-7.5-9.4-7.5c-5.1,0-9.4,3.4-9.4,7.5v72c0,4.1,4.2,7.5,9.4,7.5
	C458.2,88.5,462.4,85.1,462.4,81z"/>
<rect x="443.7" y="66.6" class="st0" width="18.8" height="92"/>
<g>
	<path class="st0" d="M36.5,177.2V27.6H0.6L11.5,5.4h50.7v171.9H36.5z"/>
	<path class="st0" d="M240.4,154.7v22.5H124.1l64.8-77.6c8.1-9.7,13.9-18.3,17.7-25.6c3.7-7.3,5.6-14,5.6-20
		c0-8.6-2.5-15.4-7.6-20.3c-5.1-4.9-12.1-7.4-20.9-7.4c-7.9,0-14.4,2.5-19.6,7.4c-5.1,4.9-8,11.4-8.7,19.5h-27.1
		c0-15.6,5.2-28,15.6-37.3C154.3,6.6,168.3,1.9,186,1.9c16.8,0,30,4.3,39.7,12.9c9.7,8.6,14.5,20.4,14.5,35.2
		c0,10.6-2.8,21.3-8.4,32.1c-5.6,10.8-17.4,26.5-35.4,47l-22,25.6H240.4z"/>
	<path class="st0" d="M276.8,130.9h27v1.4c0,8,2.7,14.3,8.2,19.1c5.5,4.7,12.8,7.1,22.2,7.1c10.5,0,18.6-2.6,24.4-7.9
		c5.7-5.3,8.6-12.8,8.6-22.7c0-10.4-2.9-18.2-8.8-23.4c-5.9-5.3-14.7-7.9-26.4-7.9c-0.6,0-1.4,0-2.6,0.1c-1.2,0.1-2.1,0.1-2.7,0.1
		V74.1c0.6,0,1.4,0,2.5,0.1c1.1,0.1,2,0.1,2.5,0.1c10.3,0,18-2.2,23.2-6.5c5.2-4.3,7.8-10.6,7.8-19c0-7.4-2.4-13.3-7.1-17.7
		c-4.7-4.4-11-6.6-18.9-6.6c-8.5,0-15.1,2-19.9,6.1c-4.8,4.1-7.3,9.8-7.5,17.1h-25.5c0.8-14.8,5.8-26.1,15.1-34
		c9.2-7.9,22.1-11.9,38.5-11.9c15.9,0,28.5,4.1,37.8,12.4c9.3,8.3,13.9,19.5,13.9,33.7c0,10.7-2.6,19.4-7.9,26.3
		c-5.3,6.8-12.5,11-21.9,12.4c11,2,19.3,6.8,25.1,14.5c5.7,7.7,8.6,17.8,8.6,30.5c0,15.4-5.4,27.6-16.2,36.7
		c-10.8,9-25.4,13.6-43.8,13.6c-16.7,0-30.1-4.6-40.3-13.8C282.6,158.9,277.2,146.5,276.8,130.9z"/>
</g>
</svg>
